<svg xmlns="http://www.w3.org/2000/svg" viewBox="0 0 61.63 80.02"><defs><style>.cls-1{fill:#ffa400;}.cls-2{fill:#e6e6e6;}.cls-3{fill:#404041;}.cls-4{fill:#fff;}.cls-5{fill:#2b2b2b;}</style></defs><g id="レイヤー_2" data-name="レイヤー 2"><g id="レイヤー_1-2" data-name="レイヤー 1"><g id="penguin"><path class="cls-1" d="M23.94,23.66a7.39,7.39,0,0,0-5.32-8l-.6-.18H16.35l-13.62.68a1.67,1.67,0,0,0-1,3L14.8,29.22a7.94,7.94,0,0,0,1.78.6h0A7.23,7.23,0,0,0,23.94,23.66Z"/><path class="cls-2" d="M14.55,37.34l.25-6.45h0l-.22,6.46C12,40.35,0,55.45,0,75v1.94A3.33,3.33,0,0,0,3.36,80H58c0-3.79-23.44-9.91-23.44-19.73C34.52,43.65,21.16,38.75,14.55,37.34Z"/><path class="cls-3" d="M14.8,29.22c3.85.13,7.43-.9,8-5.12a7.93,7.93,0,0,0-5.73-8.4l-.64-.19A23.33,23.33,0,0,1,44.88.92,23,23,0,0,1,61.55,23.17v.12c0,2.11.19,33.58,0,53.46,0,1.82-2,3.26-3.79,3.26H54.34A19.77,19.77,0,0,1,34.52,60.29h0c0-16.65-13.36-21.54-20-23Z"/><path class="cls-4" d="M41.94,19.19a6.7,6.7,0,1,1-6.73-6.67h0a6.68,6.68,0,0,1,6.7,6.66Zm-2.91,0A3.79,3.79,0,1,0,35.22,23h0A3.78,3.78,0,0,0,39,19.19Z"/><ellipse class="cls-5" cx="35.24" cy="19.19" rx="3.79" ry="3.77"/></g></g></g></svg>